<svg xmlns="http://www.w3.org/2000/svg" width="612.1" height="407.55" viewBox="0 0 612.1 407.55" role="img">
<title>Xenoglyphiq lockup (C - stacked (backup)), for dark backgrounds</title>
<polygon points="339.38,28.33 389.9,57.5 389.9,115.83 339.38,145 288.87,115.83 288.87,57.5" fill="none" stroke="#8E2A55" stroke-width="8.33" stroke-linejoin="round"/>
<polygon points="306.05,61.67 356.57,90.83 356.57,149.17 306.05,178.33 255.53,149.17 255.53,90.83" fill="none" stroke="#EB6F92" stroke-width="8.33" stroke-linejoin="round"/>
<polygon points="272.72,95 323.23,124.17 323.23,182.5 272.72,211.67 222.2,182.5 222.2,124.17" fill="none" stroke="#F6C177" stroke-width="8.33" stroke-linejoin="round"/>
<path fill="#F7EDEF" d="M45.6 276.0 22.5 242.0H33.3L51.1 268.4L68.7 242.0H79.5L56.4 276.4L80.5 312.0H69.7L51.0 284.0L32.3 312.0H21.5ZM85.5 302.5V271.8L95.1 262.2H121.2L130.8 271.8V290.0H94.8V299.6L99.2 304.0H117.1L121.5 299.7V296.3H130.7V302.5L121.30000000000001 312.0H95.0ZM121.5 282.7V274.6L117.0 270.2H99.3L94.8 274.6V282.7ZM143.3 262.2H152.20000000000002V272.0L162.0 262.2H177.60000000000002L187.4 272.0V312.0H178.10000000000002V274.8L173.60000000000002 270.3H164.10000000000002L152.60000000000002 281.8V312.0H143.3ZM199.9 302.4V271.8L209.5 262.2H236.10000000000002L245.60000000000002 271.8V302.4L236.10000000000002 312.0H209.5ZM231.8 303.9 236.3 299.5V274.7L231.8 270.3H213.70000000000002L209.20000000000002 274.7V299.5L213.70000000000002 303.9ZM303.3 262.2V324.3L293.70000000000005 333.9H268.20000000000005L259.90000000000003 325.7V319.4H269.3V322.8L272.20000000000005 325.8H289.5L294.0 321.4V304.3L285.6 312.0H267.20000000000005L257.6 302.4V271.8L267.20000000000005 262.2H286.3L294.5 270.3V262.2ZM294.0 279.4 284.70000000000005 270.3H271.5L266.90000000000003 274.9V299.3L271.5 303.9H284.40000000000003L294.0 294.6ZM317.8 240.6H327.1V312.0H317.8ZM385.3 262.2V324.3L375.6 333.9H350.8L342.6 325.7V319.4H351.90000000000003V322.9L354.90000000000003 325.8H371.5L376.0 321.4V302.5L366.40000000000003 312.0H350.8L341.1 302.3V262.2H350.40000000000003V299.4L354.90000000000003 303.9H364.5L376.0 292.2V262.2ZM399.3 262.2H408.2V270.6L416.5 262.2H435.5L445.0 271.8V302.4L435.5 312.0H416.2L408.6 305.4V333.2H399.3ZM431.20000000000005 303.9 435.70000000000005 299.4V274.8L431.20000000000005 270.3H418.40000000000003L408.6 280.2V295.7L417.7 303.9ZM458.0 240.6H467.3V271.7L476.8 262.2H492.5L502.3 272.0V312.0H493.0V274.8L488.5 270.3H478.8L467.3 281.8V312.0H458.0ZM515.3 251.1V246.1L518.8 242.5H524.1L527.6 246.1V251.1L524.1 254.7H518.8ZM516.8 262.2H526.1V312.0H516.8ZM576.3000000000001 303.2 567.5 312.0H549.7L540.1 302.4V271.8L549.7 262.2H575.9L585.6 271.9V333.2H576.3000000000001ZM565.7 303.9 576.3000000000001 292.8V274.8L571.8000000000001 270.3H553.9L549.4 274.8V299.4L553.9 303.9Z"/>
<path fill="#C9A9B6" d="M46.757999999999996 343.2H50.102V371.052H65.76599999999999V374.0H46.757999999999996ZM69.286 369.952V356.136L73.334 352.088H84.598L88.646 356.136V369.952L84.598 374.0H73.334ZM83.19 371.096 85.39 368.94V357.148L83.19 354.992H74.742L72.542 357.148V368.94L74.742 371.096ZM93.706 370.392V367.664H96.962V369.468L98.722 371.184H106.818L108.578 369.468V366.08L106.818 364.32H97.358L93.882 360.844V355.696L97.49 352.088H107.786L111.394 355.696V358.424H108.138V356.62L106.378 354.904H98.898L97.138 356.62V359.832L98.898 361.592H108.226L111.834 365.2V370.392L108.226 374.0H97.314ZM119.314 369.952V354.948H115.35399999999998V352.088H119.40199999999999V344.96H122.57V352.088H129.434V354.948H122.57V368.94L124.77 371.14H129.434V374.0H123.362ZM145.23000000000002 352.088H148.398V356.752L153.062 352.088H159.794L163.842 356.136V374.0H160.586V357.148L158.386 354.992H153.942L148.48600000000002 360.448V374.0H145.23000000000002ZM169.782 369.952V356.136L173.82999999999998 352.088H185.094L189.142 356.136V369.952L185.094 374.0H173.82999999999998ZM183.686 371.096 185.886 368.94V357.148L183.686 354.992H175.238L173.038 357.148V368.94L175.238 371.096ZM196.62199999999999 369.952V354.948H192.66199999999998V352.088H196.70999999999998V344.96H199.878V352.088H206.742V354.948H199.878V368.94L202.07799999999997 371.14H206.742V374.0H200.67ZM211.802 342.584H215.058V356.664L219.634 352.088H226.45399999999998L230.50199999999998 356.136V374.0H227.24599999999998V357.148L225.046 354.992H220.51399999999998L215.058 360.448V374.0H211.802ZM236.662 347.072V345.136L237.982 343.81600000000003H239.918L241.238 345.136V347.072L239.918 348.392H237.982ZM237.322 352.088H240.578V374.0H237.322ZM247.618 352.088H250.78599999999997V356.752L255.45 352.088H262.18199999999996L266.22999999999996 356.136V374.0H262.974V357.148L260.774 354.992H256.33L250.874 360.448V374.0H247.618ZM291.53 352.088V379.588L287.52599999999995 383.592H276.65799999999996L273.2699999999999 380.204V377.52H276.52599999999995V379.148L278.0659999999999 380.688H286.07399999999996L288.27399999999994 378.532V370.348L284.22599999999994 374.0H276.21799999999996L272.16999999999996 369.952V356.136L276.21799999999996 352.088H284.53399999999993L288.36199999999997 355.916V352.088ZM288.27399999999994 359.612 283.65399999999994 354.992H277.6259999999999L275.42599999999993 357.148V368.94L277.6259999999999 371.096H283.6979999999999L288.27399999999994 366.828ZM308.64599999999996 347.072V345.136L309.96599999999995 343.81600000000003H311.902L313.222 345.136V347.072L311.902 348.392H309.96599999999995ZM309.306 352.088H312.56199999999995V374.0H309.306ZM319.602 352.088H322.77V356.752L327.43399999999997 352.088H334.16599999999994L338.21399999999994 356.136V374.0H334.95799999999997V357.148L332.758 354.992H328.31399999999996L322.85799999999995 360.448V374.0H319.602ZM357.30999999999995 369.952V354.948H353.34999999999997V352.088H357.39799999999997V344.96H360.566V352.088H367.42999999999995V354.948H360.566V368.94L362.76599999999996 371.14H367.42999999999995V374.0H361.35799999999995ZM372.49 352.088H375.658V356.004L379.574 352.088H385.25V354.992H380.40999999999997L375.746 359.656V374.0H372.49ZM387.66999999999996 370.392V364.804L391.27799999999996 361.24H402.98199999999997V357.06L400.782 354.904H393.30199999999996L391.102 357.06V358.864H387.84599999999995V356.136L391.89399999999995 352.088H402.14599999999996L406.19399999999996 356.136V374.0H403.07V370.128L399.022 374.0H391.27799999999996ZM398.36199999999997 371.184 402.98199999999997 366.74V364.056H392.686L390.926 365.772V369.468L392.686 371.184ZM412.574 352.088H415.742V356.752L420.406 352.088H427.138L431.186 356.136V374.0H427.93V357.148L425.73 354.992H421.286L415.83 360.448V374.0H412.574ZM436.46599999999995 370.392V367.664H439.722V369.468L441.48199999999997 371.184H449.578L451.33799999999997 369.468V366.08L449.578 364.32H440.11799999999994L436.64199999999994 360.844V355.696L440.24999999999994 352.088H450.54599999999994L454.15399999999994 355.696V358.424H450.89799999999997V356.62L449.138 354.904H441.65799999999996L439.89799999999997 356.62V359.832L441.65799999999996 361.592H450.986L454.59399999999994 365.2V370.392L450.986 374.0H440.07399999999996ZM460.31399999999996 342.584H463.57V374.0H460.31399999999996ZM469.72999999999996 370.392V364.804L473.33799999999997 361.24H485.042V357.06L482.842 354.904H475.36199999999997L473.162 357.06V358.864H469.90599999999995V356.136L473.95399999999995 352.088H484.20599999999996L488.25399999999996 356.136V374.0H485.13V370.128L481.082 374.0H473.33799999999997ZM480.42199999999997 371.184 485.042 366.74V364.056H474.746L472.986 365.772V369.468L474.746 371.184ZM496.1739999999999 369.952V354.948H492.21399999999994V352.088H496.26199999999994V344.96H499.42999999999995V352.088H506.2939999999999V354.948H499.42999999999995V368.94L501.62999999999994 371.14H506.2939999999999V374.0H500.2219999999999ZM511.13399999999996 347.072V345.136L512.454 343.81600000000003H514.39L515.7099999999999 345.136V347.072L514.39 348.392H512.454ZM511.794 352.088H515.05V374.0H511.794ZM521.65 369.952V356.136L525.698 352.088H536.962L541.01 356.136V369.952L536.962 374.0H525.698ZM535.554 371.096 537.7539999999999 368.94V357.148L535.554 354.992H527.106L524.906 357.148V368.94L527.106 371.096ZM547.1699999999998 352.088H550.3379999999999V356.752L555.0019999999998 352.088H561.7339999999999L565.7819999999999 356.136V374.0H562.5259999999998V357.148L560.3259999999999 354.992H555.8819999999998L550.4259999999999 360.448V374.0H547.1699999999998Z"/>
</svg>
